<svg id="Layer_1" data-name="Layer 1" xmlns="http://www.w3.org/2000/svg" viewBox="0 0 856.07 202.71" class="h-full">
  <defs>
    <style>
      .cls-1 {
        fill: #10293d;
      }
    </style>
  </defs>
  <g>
    <g>
      <path class="cls-1" d="M205.15,121.11c-6.7,0-12.26-2.22-16.67-6.65-4.41-4.43-6.62-9.91-6.62-16.44s2.2-12.01,6.62-16.44c4.41-4.43,9.97-6.65,16.67-6.65,4.03,0,7.75.95,11.16,2.86,3.41,1.91,6.07,4.5,7.98,7.76l-6.36,3.69c-1.19-2.2-2.92-3.95-5.18-5.25-2.27-1.29-4.8-1.94-7.6-1.94-4.75,0-8.6,1.51-11.55,4.52-2.95,3.01-4.42,6.83-4.42,11.45s1.47,8.44,4.42,11.45c2.95,3.01,6.8,4.52,11.55,4.52,2.8,0,5.34-.65,7.63-1.94,2.29-1.29,4.01-3.04,5.15-5.25l6.36,3.63c-1.87,3.27-4.51,5.86-7.92,7.79-3.41,1.93-7.16,2.89-11.23,2.89Z"/>
      <path class="cls-1" d="M230.53,120.28v-46.44h6.87v46.44h-6.87Z"/>
      <path class="cls-1" d="M260.68,121.11c-4.67,0-8.63-1.61-11.9-4.83-3.27-3.22-4.9-7.19-4.9-11.9s1.63-8.67,4.9-11.9c3.27-3.22,7.23-4.83,11.9-4.83s8.68,1.61,11.93,4.83c3.24,3.22,4.87,7.19,4.87,11.9s-1.62,8.67-4.87,11.9c-3.24,3.22-7.22,4.83-11.93,4.83ZM253.62,111.56c1.91,1.91,4.26,2.86,7.06,2.86s5.15-.95,7.06-2.86c1.91-1.91,2.86-4.3,2.86-7.19s-.95-5.28-2.86-7.19c-1.91-1.91-4.26-2.86-7.06-2.86s-5.15.95-7.06,2.86-2.86,4.31-2.86,7.19.95,5.28,2.86,7.19Z"/>
      <path class="cls-1" d="M299.04,121.11c-4.79,0-8.79-1.61-11.99-4.83-3.2-3.22-4.8-7.19-4.8-11.9s1.6-8.73,4.8-11.93c3.2-3.2,7.2-4.8,11.99-4.8,3.1,0,5.92.74,8.46,2.23,2.54,1.48,4.45,3.48,5.73,5.98l-5.92,3.44c-.72-1.53-1.81-2.72-3.28-3.59-1.46-.87-3.15-1.3-5.06-1.3-2.8,0-5.14.95-7.03,2.86-1.89,1.91-2.83,4.28-2.83,7.12s.94,5.22,2.83,7.12c1.89,1.91,4.23,2.86,7.03,2.86,1.87,0,3.55-.45,5.06-1.34,1.5-.89,2.64-2.08,3.4-3.56l5.92,3.37c-1.36,2.54-3.31,4.56-5.85,6.04s-5.37,2.23-8.46,2.23Z"/>
      <path class="cls-1" d="M346.75,120.28h-8.21l-13.04-14.69v14.69h-6.87v-44.53h6.87v26.78l12.34-14.06h8.4l-13.99,15.59,14.5,16.22Z"/>
      <path class="cls-1" d="M387.72,88.47h7.25l-9.99,31.81h-6.74l-6.62-21.44-6.68,21.44h-6.74l-9.99-31.81h7.25l6.17,21.95,6.68-21.95h6.55l6.62,21.95,6.23-21.95Z"/>
      <path class="cls-1" d="M414.12,121.11c-4.67,0-8.63-1.61-11.9-4.83-3.27-3.22-4.9-7.19-4.9-11.9s1.63-8.67,4.9-11.9c3.27-3.22,7.23-4.83,11.9-4.83s8.68,1.61,11.93,4.83c3.24,3.22,4.87,7.19,4.87,11.9s-1.62,8.67-4.87,11.9c-3.24,3.22-7.22,4.83-11.93,4.83ZM407.06,111.56c1.91,1.91,4.26,2.86,7.06,2.86s5.15-.95,7.06-2.86c1.91-1.91,2.86-4.3,2.86-7.19s-.95-5.28-2.86-7.19c-1.91-1.91-4.26-2.86-7.06-2.86s-5.15.95-7.06,2.86-2.86,4.31-2.86,7.19.95,5.28,2.86,7.19Z"/>
      <path class="cls-1" d="M444.34,93.81c1.74-3.94,5-5.92,9.8-5.92v7.44c-2.63-.17-4.92.46-6.87,1.88-1.95,1.42-2.93,3.76-2.93,7.03v16.03h-6.87v-31.81h6.87v5.34Z"/>
      <path class="cls-1" d="M487.66,120.28h-8.21l-13.04-14.69v14.69h-6.87v-44.53h6.87v26.78l12.34-14.06h8.4l-13.99,15.59,14.5,16.22Z"/>
      <path class="cls-1" d="M551.91,75.75v44.53h-7.32v-31.74l-13.55,22.39h-.89l-13.55-22.46v31.81h-7.32v-44.53h7.89l13.42,22.26,13.49-22.26h7.82Z"/>
      <path class="cls-1" d="M585.87,88.47h6.87v31.81h-6.87v-4.58c-2.59,3.6-6.3,5.41-11.13,5.41-4.37,0-8.1-1.62-11.2-4.87-3.1-3.24-4.64-7.2-4.64-11.86s1.55-8.67,4.64-11.9c3.1-3.22,6.83-4.83,11.2-4.83,4.83,0,8.54,1.78,11.13,5.34v-4.52ZM568.64,111.66c1.91,1.93,4.3,2.89,7.19,2.89s5.28-.96,7.19-2.89c1.91-1.93,2.86-4.36,2.86-7.28s-.95-5.35-2.86-7.28c-1.91-1.93-4.3-2.89-7.19-2.89s-5.28.97-7.19,2.89c-1.91,1.93-2.86,4.36-2.86,7.28s.95,5.35,2.86,7.28Z"/>
      <path class="cls-1" d="M607.95,93.81c1.74-3.94,5-5.92,9.8-5.92v7.44c-2.63-.17-4.92.46-6.87,1.88-1.95,1.42-2.93,3.76-2.93,7.03v16.03h-6.87v-31.81h6.87v5.34Z"/>
      <path class="cls-1" d="M651.27,120.28h-8.21l-13.04-14.69v14.69h-6.87v-44.53h6.87v26.78l12.34-14.06h8.4l-13.99,15.59,14.5,16.22Z"/>
      <path class="cls-1" d="M659.09,107.3c.51,2.42,1.67,4.27,3.5,5.57,1.82,1.29,4.05,1.94,6.68,1.94,3.65,0,6.38-1.31,8.21-3.94l5.66,3.31c-3.14,4.62-7.78,6.93-13.93,6.93-5.17,0-9.35-1.58-12.53-4.74-3.18-3.16-4.77-7.16-4.77-11.99s1.57-8.73,4.71-11.93c3.14-3.2,7.17-4.8,12.09-4.8,4.66,0,8.49,1.63,11.48,4.9,2.99,3.27,4.48,7.23,4.48,11.9,0,.72-.09,1.68-.25,2.86h-25.32ZM659.03,101.7h18.7c-.47-2.59-1.54-4.54-3.21-5.85-1.68-1.31-3.64-1.97-5.88-1.97-2.54,0-4.67.7-6.36,2.1-1.7,1.4-2.78,3.31-3.24,5.73Z"/>
      <path class="cls-1" d="M707.76,95.09h-7.89v15.27c0,1.31.3,2.26.89,2.83.59.57,1.47.89,2.64.95,1.17.06,2.62.05,4.36-.03v6.17c-5.26.64-9.03.18-11.32-1.37s-3.44-4.4-3.44-8.56v-15.27h-5.85v-6.62h5.85v-6.87l6.87-2.04v8.91h7.89v6.62Z"/>
      <path class="cls-1" d="M720.83,82.4c-.87.87-1.9,1.3-3.08,1.3s-2.22-.43-3.09-1.3c-.87-.87-1.3-1.9-1.3-3.08s.42-2.22,1.27-3.09c.85-.87,1.89-1.3,3.12-1.3s2.27.44,3.12,1.3c.85.87,1.27,1.9,1.27,3.09s-.44,2.22-1.3,3.08ZM714.31,120.28v-31.81h6.87v31.81h-6.87Z"/>
      <path class="cls-1" d="M746.18,87.64c3.65,0,6.59,1.17,8.84,3.5,2.25,2.33,3.37,5.53,3.37,9.61v19.53h-6.87v-18.83c0-2.37-.64-4.2-1.91-5.47-1.27-1.27-3.01-1.91-5.22-1.91-2.42,0-4.37.75-5.85,2.26-1.49,1.51-2.23,3.81-2.23,6.9v17.05h-6.87v-31.81h6.87v4.07c2.08-3.27,5.36-4.9,9.86-4.9Z"/>
      <path class="cls-1" d="M791.41,88.47h6.74v30.34c0,4.83-1.59,8.54-4.77,11.13-3.18,2.59-7.04,3.88-11.58,3.88-7.34,0-12.36-2.57-15.08-7.7l5.92-3.44c1.65,3.27,4.75,4.9,9.29,4.9,2.97,0,5.29-.77,6.97-2.32,1.67-1.55,2.51-3.7,2.51-6.46v-3.88c-2.59,3.69-6.28,5.53-11.07,5.53-4.5,0-8.29-1.6-11.39-4.8-3.1-3.2-4.64-7.07-4.64-11.61s1.55-8.41,4.64-11.61c3.1-3.2,6.89-4.8,11.39-4.8,4.79,0,8.48,1.84,11.07,5.53v-4.71ZM774.07,111.18c1.93,1.91,4.34,2.86,7.22,2.86s5.29-.95,7.22-2.86c1.93-1.91,2.89-4.28,2.89-7.12s-.96-5.22-2.89-7.12c-1.93-1.91-4.34-2.86-7.22-2.86s-5.29.95-7.22,2.86c-1.93,1.91-2.89,4.28-2.89,7.12s.96,5.22,2.89,7.12Z"/>
    </g>
    <g>
      <path class="cls-1" d="M141.09,101.36c0,29.32-23.86,53.18-53.18,53.18s-53.18-23.85-53.18-53.18,23.86-53.18,53.18-53.18,53.18,23.86,53.18,53.18M87.91,44.66c-31.26,0-56.69,25.43-56.69,56.69s25.43,56.69,56.69,56.69,56.69-25.43,56.69-56.69-25.43-56.69-56.69-56.69"/>
      <path class="cls-1" d="M127.63,119.35c0,1.5-1.22,2.72-2.72,2.72-.77,0-1.51-.32-2.03-.87-.47-.5-.72-1.12-.69-1.75v-.05s0-.05,0-.05c0-1.5,1.22-2.72,2.72-2.72s2.72,1.22,2.72,2.72M120.2,119.35c-.12,2.54,2.06,4.72,4.72,4.72s4.72-2.18,4.72-4.72-2.18-4.72-4.72-4.72-4.72,2.18-4.72,4.72"/>
      <path class="cls-1" d="M95.61,103.63c-.54-.26-1.18-.03-1.45.5-.27.53-.04,1.18.5,1.44.15.08.31.12.47.12.39,0,.78-.23.96-.61.27-.53.04-1.18-.49-1.45"/>
      <path class="cls-1" d="M106.33,108.87c-.54-.27-1.18-.04-1.45.49-.26.54-.04,1.18.5,1.45.15.08.31.11.46.11.4,0,.79-.23.97-.6.27-.54.04-1.19-.49-1.45"/>
      <path class="cls-1" d="M111.68,111.47c-.53-.26-1.18-.03-1.45.5-.26.54-.03,1.18.5,1.45.15.07.32.11.47.11.4,0,.79-.23.97-.61.26-.53.04-1.18-.5-1.45"/>
      <path class="cls-1" d="M100.96,106.25c-.53-.27-1.18-.04-1.45.49-.26.54-.04,1.19.5,1.45.15.08.32.11.47.11.4,0,.79-.22.97-.6.26-.54.04-1.18-.5-1.45"/>
      <path class="cls-1" d="M117.05,114.09c-.54-.26-1.18-.04-1.45.5-.27.53-.04,1.18.49,1.44.16.08.32.11.47.11.4,0,.79-.22.97-.6.27-.53.04-1.18-.49-1.45"/>
      <path class="cls-1" d="M107.63,82.6l-1.84,7.48-1.9-7.48-7.48-1.84,7.48-1.9,1.9-7.48,1.84,7.48,7.48,1.9-7.48,1.84ZM109.29,77.22l-3.46-14.08-3.58,14.08-14.08,3.58,14.08,3.46,3.58,14.07,3.46-14.07,14.08-3.46-14.07-3.58Z"/>
      <polygon class="cls-1" points="59.86 99.87 68.17 97.79 59.86 95.82 57.89 87.51 55.81 95.82 47.61 97.79 55.81 99.87 57.89 108.07 59.86 99.87"/>
      <polygon class="cls-1" points="67.16 113.14 65.27 120.59 57.82 122.37 65.27 124.26 67.16 131.7 68.93 124.26 76.38 122.37 68.93 120.59 67.16 113.14"/>
      <path class="cls-1" d="M91.35,101.36c0-1.86-1.51-3.37-3.37-3.37-.32,0-.62.06-.91.14l-2.12-3.36c.54-.6.89-1.39.89-2.26,0-1.86-1.51-3.37-3.37-3.37-.38,0-.75.08-1.09.2l-13.92-19.21c.79-.83,1.3-1.96,1.3-3.24,0-2.55-2.04-4.72-4.72-4.72s-4.72,2.04-4.72,4.72,2.04,4.72,4.72,4.72c.62,0,1.22-.13,1.77-.35l13.96,19.25c-.41.56-.67,1.24-.67,1.99,0,1.86,1.51,3.37,3.37,3.37.26,0,.52-.04.76-.1l2.16,3.44c-.49.58-.79,1.32-.79,2.14,0,1.44.91,2.66,2.17,3.14l-1.45,27.89c-2.18.39-3.9,2.25-3.9,4.64,0,2.68,2.04,4.72,4.72,4.72s4.72-2.04,4.72-4.72c0-2.16-1.47-4.03-3.55-4.56l1.45-27.85c1.47-.36,2.57-1.68,2.57-3.27"/>
    </g>
  </g>
  <path class="cls-1" d="M805.75,84.56c0-5.57,3.96-9.63,9.58-9.63s9.53,4.06,9.53,9.63-3.96,9.67-9.53,9.67-9.58-4.1-9.58-9.67ZM807.78,84.56c0,4.58,2.92,7.78,7.55,7.78s7.59-3.21,7.59-7.78-3.02-7.79-7.59-7.79-7.55,3.21-7.55,7.79ZM817.35,85.6l2.64,3.91-2.97.05-2.27-3.78h-.8v3.78h-2.45v-10.15h4.53c2.12,0,3.54,1.23,3.54,3.16,0,1.51-.85,2.59-2.22,3.02ZM813.96,81.63v2.12h1.93c.66,0,1.23-.33,1.23-1.08s-.56-1.04-1.23-1.04h-1.93Z"/>
</svg>
