<?xml version="1.0" encoding="UTF-8"?>
<svg id="Layer_1" data-name="Layer 1" xmlns="http://www.w3.org/2000/svg" viewBox="0 0 451.48 203.07">
  <defs>
    <style>
      .cls-1 {
        fill: #10293d;
      }
    </style>
  </defs>
  <g>
    <g>
      <g>
        <path class="cls-1" d="M200.98,90.87c-4.78,0-8.74-1.58-11.89-4.74-3.15-3.16-4.72-7.07-4.72-11.73s1.57-8.57,4.72-11.73c3.15-3.16,7.11-4.74,11.89-4.74,2.87,0,5.53.68,7.96,2.04,2.43,1.36,4.33,3.21,5.7,5.54l-4.54,2.63c-.85-1.57-2.08-2.82-3.7-3.74-1.62-.92-3.43-1.38-5.42-1.38-3.39,0-6.13,1.07-8.24,3.22-2.1,2.15-3.15,4.87-3.15,8.17s1.05,6.02,3.15,8.17c2.1,2.15,4.85,3.22,8.24,3.22,2,0,3.81-.46,5.45-1.38,1.63-.92,2.86-2.17,3.68-3.74l4.54,2.59c-1.33,2.33-3.22,4.18-5.65,5.56-2.44,1.38-5.11,2.06-8.01,2.06Z"/>
        <path class="cls-1" d="M219.09,90.28v-33.13h4.9v33.13h-4.9Z"/>
        <path class="cls-1" d="M240.6,90.87c-3.33,0-6.16-1.15-8.49-3.45-2.33-2.3-3.49-5.13-3.49-8.49s1.16-6.19,3.49-8.49c2.33-2.3,5.16-3.45,8.49-3.45s6.19,1.15,8.51,3.45c2.31,2.3,3.47,5.13,3.47,8.49s-1.16,6.19-3.47,8.49c-2.31,2.3-5.15,3.45-8.51,3.45ZM235.56,84.06c1.36,1.36,3.04,2.04,5.04,2.04s3.68-.68,5.04-2.04c1.36-1.36,2.04-3.07,2.04-5.13s-.68-3.77-2.04-5.13c-1.36-1.36-3.04-2.04-5.04-2.04s-3.68.68-5.04,2.04-2.04,3.07-2.04,5.13.68,3.77,2.04,5.13Z"/>
        <path class="cls-1" d="M267.96,90.87c-3.42,0-6.27-1.15-8.55-3.45-2.28-2.3-3.43-5.13-3.43-8.49s1.14-6.22,3.43-8.51c2.28-2.28,5.14-3.43,8.55-3.43,2.21,0,4.22.53,6.04,1.59,1.82,1.06,3.18,2.48,4.08,4.27l-4.22,2.45c-.51-1.09-1.29-1.94-2.34-2.56-1.04-.62-2.25-.93-3.61-.93-2,0-3.67.68-5.01,2.04-1.35,1.36-2.02,3.06-2.02,5.08s.67,3.72,2.02,5.08c1.35,1.36,3.02,2.04,5.01,2.04,1.33,0,2.53-.32,3.61-.95,1.07-.64,1.88-1.48,2.43-2.54l4.22,2.41c-.97,1.82-2.36,3.25-4.18,4.31-1.82,1.06-3.83,1.59-6.04,1.59Z"/>
        <path class="cls-1" d="M302,90.28h-5.85l-9.3-10.48v10.48h-4.9v-31.77h4.9v19.11l8.8-10.03h5.99l-9.98,11.12,10.35,11.57Z"/>
        <path class="cls-1" d="M331.22,67.59h5.17l-7.12,22.69h-4.81l-4.72-15.29-4.76,15.29h-4.81l-7.12-22.69h5.17l4.4,15.66,4.77-15.66h4.67l4.72,15.66,4.45-15.66Z"/>
        <path class="cls-1" d="M350.06,90.87c-3.33,0-6.16-1.15-8.49-3.45-2.33-2.3-3.49-5.13-3.49-8.49s1.16-6.19,3.49-8.49c2.33-2.3,5.16-3.45,8.49-3.45s6.19,1.15,8.51,3.45c2.31,2.3,3.47,5.13,3.47,8.49s-1.16,6.19-3.47,8.49c-2.31,2.3-5.15,3.45-8.51,3.45ZM345.02,84.06c1.36,1.36,3.04,2.04,5.04,2.04s3.68-.68,5.04-2.04c1.36-1.36,2.04-3.07,2.04-5.13s-.68-3.77-2.04-5.13c-1.36-1.36-3.04-2.04-5.04-2.04s-3.68.68-5.04,2.04-2.04,3.07-2.04,5.13.68,3.77,2.04,5.13Z"/>
        <path class="cls-1" d="M371.61,71.4c1.24-2.81,3.57-4.22,6.99-4.22v5.31c-1.88-.12-3.51.33-4.9,1.34-1.39,1.01-2.09,2.69-2.09,5.01v11.44h-4.9v-22.69h4.9v3.81Z"/>
        <path class="cls-1" d="M402.52,90.28h-5.85l-9.3-10.48v10.48h-4.9v-31.77h4.9v19.11l8.8-10.03h5.99l-9.98,11.12,10.35,11.57Z"/>
      </g>
      <g>
        <path class="cls-1" d="M216.28,104.49v31.77h-5.22v-22.65l-9.67,15.97h-.64l-9.67-16.02v22.69h-5.22v-31.77h5.63l9.58,15.88,9.62-15.88h5.58Z"/>
        <path class="cls-1" d="M240.51,113.56h4.9v22.69h-4.9v-3.27c-1.85,2.57-4.49,3.86-7.94,3.86-3.12,0-5.78-1.16-7.99-3.47-2.21-2.31-3.31-5.14-3.31-8.46s1.1-6.19,3.31-8.49c2.21-2.3,4.87-3.45,7.99-3.45,3.45,0,6.1,1.27,7.94,3.81v-3.22ZM228.21,130.1c1.36,1.38,3.07,2.06,5.13,2.06s3.77-.69,5.13-2.06c1.36-1.38,2.04-3.11,2.04-5.2s-.68-3.82-2.04-5.2c-1.36-1.38-3.07-2.06-5.13-2.06s-3.77.69-5.13,2.06c-1.36,1.38-2.04,3.11-2.04,5.2s.68,3.82,2.04,5.2Z"/>
        <path class="cls-1" d="M256.26,117.37c1.24-2.81,3.57-4.22,6.99-4.22v5.31c-1.88-.12-3.51.33-4.9,1.34-1.39,1.01-2.09,2.69-2.09,5.01v11.44h-4.9v-22.69h4.9v3.81Z"/>
        <path class="cls-1" d="M287.16,136.25h-5.85l-9.3-10.48v10.48h-4.9v-31.77h4.9v19.11l8.8-10.03h5.99l-9.98,11.12,10.35,11.57Z"/>
        <path class="cls-1" d="M292.74,127c.36,1.72,1.19,3.05,2.5,3.97,1.3.92,2.89,1.38,4.76,1.38,2.6,0,4.55-.94,5.85-2.81l4.04,2.36c-2.24,3.3-5.55,4.95-9.94,4.95-3.69,0-6.67-1.13-8.94-3.38-2.27-2.25-3.4-5.11-3.4-8.55s1.12-6.22,3.36-8.51c2.24-2.28,5.11-3.43,8.62-3.43,3.33,0,6.06,1.17,8.19,3.49,2.13,2.33,3.2,5.16,3.2,8.49,0,.51-.06,1.2-.18,2.04h-18.06ZM292.7,123h13.34c-.33-1.85-1.1-3.24-2.29-4.18-1.2-.94-2.59-1.41-4.2-1.41-1.82,0-3.33.5-4.54,1.5-1.21,1-1.98,2.36-2.31,4.08Z"/>
        <path class="cls-1" d="M327.46,118.28h-5.63v10.89c0,.94.21,1.61.64,2.02.42.41,1.05.64,1.88.68.83.05,1.87.04,3.11-.02v4.4c-3.75.45-6.44.13-8.08-.98-1.63-1.1-2.45-3.14-2.45-6.1v-10.89h-4.18v-4.72h4.18v-4.9l4.9-1.45v6.35h5.63v4.72Z"/>
        <path class="cls-1" d="M336.79,109.23c-.62.62-1.35.93-2.2.93s-1.58-.31-2.2-.93c-.62-.62-.93-1.35-.93-2.2s.3-1.58.91-2.2c.6-.62,1.35-.93,2.22-.93s1.62.31,2.22.93c.6.62.91,1.35.91,2.2s-.31,1.58-.93,2.2ZM332.14,136.25v-22.69h4.9v22.69h-4.9Z"/>
        <path class="cls-1" d="M354.87,112.97c2.6,0,4.7.83,6.31,2.5,1.6,1.66,2.41,3.95,2.41,6.85v13.93h-4.9v-13.43c0-1.69-.45-2.99-1.36-3.9-.91-.91-2.15-1.36-3.72-1.36-1.72,0-3.12.54-4.17,1.61-1.06,1.07-1.59,2.72-1.59,4.92v12.16h-4.9v-22.69h4.9v2.9c1.48-2.33,3.83-3.49,7.03-3.49Z"/>
        <path class="cls-1" d="M387.14,113.56h4.81v21.65c0,3.45-1.13,6.1-3.4,7.94-2.27,1.84-5.02,2.77-8.26,2.77-5.23,0-8.82-1.83-10.76-5.49l4.22-2.45c1.18,2.33,3.39,3.49,6.63,3.49,2.12,0,3.77-.55,4.97-1.66,1.19-1.1,1.79-2.64,1.79-4.61v-2.77c-1.85,2.63-4.48,3.95-7.9,3.95-3.21,0-5.92-1.14-8.12-3.43-2.21-2.28-3.31-5.04-3.31-8.28s1.1-6,3.31-8.28c2.21-2.28,4.92-3.43,8.12-3.43,3.42,0,6.05,1.32,7.9,3.95v-3.36ZM374.77,129.76c1.38,1.36,3.09,2.04,5.15,2.04s3.77-.68,5.15-2.04c1.38-1.36,2.06-3.06,2.06-5.08s-.69-3.72-2.06-5.08c-1.38-1.36-3.09-2.04-5.15-2.04s-3.77.68-5.15,2.04c-1.38,1.36-2.06,3.06-2.06,5.08s.69,3.72,2.06,5.08Z"/>
      </g>
    </g>
    <g>
      <path class="cls-1" d="M150.74,101.54c0,29.32-23.86,53.18-53.18,53.18s-53.18-23.85-53.18-53.18,23.86-53.18,53.18-53.18,53.18,23.86,53.18,53.18M97.56,44.84c-31.26,0-56.69,25.43-56.69,56.69s25.43,56.69,56.69,56.69,56.69-25.43,56.69-56.69-25.43-56.69-56.69-56.69"/>
      <path class="cls-1" d="M137.28,119.53c0,1.5-1.22,2.72-2.72,2.72-.77,0-1.51-.32-2.03-.87-.47-.5-.72-1.12-.69-1.75v-.05s0-.05,0-.05c0-1.5,1.22-2.72,2.72-2.72s2.72,1.22,2.72,2.72M129.85,119.53c-.12,2.54,2.06,4.72,4.72,4.72s4.72-2.18,4.72-4.72-2.18-4.72-4.72-4.72-4.72,2.18-4.72,4.72"/>
      <path class="cls-1" d="M105.26,103.81c-.54-.26-1.18-.03-1.45.5-.27.53-.04,1.18.5,1.44.15.08.31.12.47.12.39,0,.78-.23.96-.61.27-.53.04-1.18-.49-1.45"/>
      <path class="cls-1" d="M115.98,109.05c-.54-.27-1.18-.04-1.45.49-.26.54-.04,1.18.5,1.45.15.08.31.11.46.11.4,0,.79-.23.97-.6.27-.54.04-1.19-.49-1.45"/>
      <path class="cls-1" d="M121.33,111.66c-.53-.26-1.18-.03-1.45.5-.26.54-.03,1.18.5,1.45.15.07.32.11.47.11.4,0,.79-.23.97-.61.26-.53.04-1.18-.5-1.45"/>
      <path class="cls-1" d="M110.61,106.43c-.53-.27-1.18-.04-1.45.49-.26.54-.04,1.19.5,1.45.15.08.32.11.47.11.4,0,.79-.22.97-.6.26-.54.04-1.18-.5-1.45"/>
      <path class="cls-1" d="M126.7,114.27c-.54-.26-1.18-.04-1.45.5-.27.53-.04,1.18.49,1.44.16.08.32.11.47.11.4,0,.79-.22.97-.6.27-.53.04-1.18-.49-1.45"/>
      <path class="cls-1" d="M117.28,82.78l-1.84,7.48-1.9-7.48-7.48-1.84,7.48-1.9,1.9-7.48,1.84,7.48,7.48,1.9-7.48,1.84ZM118.94,77.4l-3.46-14.08-3.58,14.08-14.08,3.58,14.08,3.46,3.58,14.07,3.46-14.07,14.08-3.46-14.07-3.58Z"/>
      <polygon class="cls-1" points="69.51 100.05 77.82 97.97 69.51 96 67.54 87.69 65.46 96 57.26 97.97 65.46 100.05 67.54 108.25 69.51 100.05"/>
      <polygon class="cls-1" points="76.8 113.32 74.91 120.77 67.47 122.55 74.91 124.44 76.8 131.89 78.58 124.44 86.03 122.55 78.58 120.77 76.8 113.32"/>
      <path class="cls-1" d="M150.74,101.54c0,29.32-23.86,53.18-53.18,53.18s-53.18-23.85-53.18-53.18,23.86-53.18,53.18-53.18,53.18,23.86,53.18,53.18M97.56,44.84c-31.26,0-56.69,25.43-56.69,56.69s25.43,56.69,56.69,56.69,56.69-25.43,56.69-56.69-25.43-56.69-56.69-56.69"/>
      <path class="cls-1" d="M100.99,101.54c0-1.86-1.51-3.37-3.37-3.37-.32,0-.62.06-.91.14l-2.12-3.36c.54-.6.89-1.39.89-2.26,0-1.86-1.51-3.37-3.37-3.37-.38,0-.75.08-1.09.2l-13.92-19.21c.79-.83,1.3-1.96,1.3-3.24,0-2.55-2.04-4.72-4.72-4.72s-4.72,2.04-4.72,4.72,2.04,4.72,4.72,4.72c.62,0,1.22-.13,1.77-.35l13.96,19.25c-.41.56-.67,1.24-.67,1.99,0,1.86,1.51,3.37,3.37,3.37.26,0,.52-.04.76-.1l2.16,3.44c-.49.58-.79,1.32-.79,2.14,0,1.44.91,2.66,2.17,3.14l-1.45,27.89c-2.18.39-3.9,2.25-3.9,4.64,0,2.68,2.04,4.72,4.72,4.72s4.72-2.04,4.72-4.72c0-2.16-1.47-4.03-3.55-4.56l1.45-27.85c1.47-.36,2.57-1.68,2.57-3.27"/>
    </g>
  </g>
  <path class="cls-1" d="M397.37,110.57c0-3.86,2.74-6.67,6.64-6.67s6.6,2.81,6.6,6.67-2.75,6.7-6.6,6.7-6.64-2.84-6.64-6.7ZM398.78,110.57c0,3.17,2.03,5.39,5.23,5.39s5.26-2.22,5.26-5.39-2.09-5.4-5.26-5.4-5.23,2.23-5.23,5.4ZM405.42,111.29l1.83,2.71-2.06.03-1.57-2.62h-.55v2.62h-1.7v-7.03h3.14c1.47,0,2.45.85,2.45,2.19,0,1.05-.59,1.8-1.54,2.09ZM403.06,108.54v1.47h1.34c.46,0,.85-.23.85-.75s-.39-.72-.85-.72h-1.34Z"/>
</svg>