<?xml version="1.0" encoding="UTF-8"?>
<svg id="Layer_1" data-name="Layer 1" xmlns="http://www.w3.org/2000/svg" viewBox="0 0 822.1 165.04">
  <defs>
    <style>
      .cls-1 {
        fill: #10293d;
      }
    </style>
  </defs>
  <path class="cls-1" d="M124.1,79.71c0,29.32-23.86,53.18-53.18,53.18s-53.18-23.85-53.18-53.18,23.86-53.18,53.18-53.18,53.18,23.86,53.18,53.18M70.92,23.02c-31.26,0-56.69,25.43-56.69,56.69s25.43,56.69,56.69,56.69,56.69-25.43,56.69-56.69-25.43-56.69-56.69-56.69"/>
  <path class="cls-1" d="M110.65,97.71c0,1.5-1.22,2.72-2.72,2.72-.77,0-1.51-.32-2.03-.87-.47-.5-.72-1.12-.69-1.75v-.05s0-.05,0-.05c0-1.5,1.22-2.72,2.72-2.72s2.72,1.22,2.72,2.72M103.21,97.71c-.12,2.54,2.06,4.72,4.72,4.72s4.72-2.18,4.72-4.72-2.18-4.72-4.72-4.72-4.72,2.18-4.72,4.72"/>
  <path class="cls-1" d="M78.62,81.98c-.54-.26-1.18-.03-1.45.5-.27.53-.04,1.18.5,1.44.15.08.31.12.47.12.39,0,.78-.23.96-.61.27-.53.04-1.18-.49-1.45"/>
  <path class="cls-1" d="M89.34,87.22c-.54-.27-1.18-.04-1.45.49-.26.54-.04,1.18.5,1.45.15.08.31.11.46.11.4,0,.79-.23.97-.6.27-.54.04-1.19-.49-1.45"/>
  <path class="cls-1" d="M94.7,89.83c-.53-.26-1.18-.03-1.45.5-.26.54-.03,1.18.5,1.45.15.07.32.11.47.11.4,0,.79-.23.97-.61.26-.53.04-1.18-.5-1.45"/>
  <path class="cls-1" d="M83.98,84.6c-.53-.27-1.18-.04-1.45.49-.26.54-.04,1.19.5,1.45.15.08.32.11.47.11.4,0,.79-.22.97-.6.26-.54.04-1.18-.5-1.45"/>
  <path class="cls-1" d="M100.06,92.45c-.54-.26-1.18-.04-1.45.5-.27.53-.04,1.18.49,1.44.16.08.32.11.47.11.4,0,.79-.22.97-.6.27-.53.04-1.18-.49-1.45"/>
  <path class="cls-1" d="M90.65,60.95l-1.84,7.48-1.9-7.48-7.48-1.84,7.48-1.9,1.9-7.48,1.84,7.48,7.48,1.9-7.48,1.84ZM92.3,55.57l-3.46-14.08-3.58,14.08-14.08,3.58,14.08,3.46,3.58,14.07,3.46-14.07,14.08-3.46-14.07-3.58Z"/>
  <polygon class="cls-1" points="42.87 78.22 51.18 76.15 42.87 74.17 40.9 65.86 38.83 74.17 30.62 76.15 38.83 78.22 40.9 86.42 42.87 78.22"/>
  <polygon class="cls-1" points="50.17 91.5 48.28 98.94 40.83 100.72 48.28 102.61 50.17 110.06 51.95 102.61 59.39 100.72 51.95 98.94 50.17 91.5"/>
  <path class="cls-1" d="M74.36,79.71c0-1.86-1.51-3.37-3.37-3.37-.32,0-.62.06-.91.14l-2.12-3.36c.54-.6.89-1.39.89-2.26,0-1.86-1.51-3.37-3.37-3.37-.38,0-.75.08-1.09.2l-13.92-19.21c.79-.83,1.3-1.96,1.3-3.24,0-2.55-2.04-4.72-4.72-4.72s-4.72,2.04-4.72,4.72,2.04,4.72,4.72,4.72c.62,0,1.22-.13,1.77-.35l13.96,19.25c-.41.56-.67,1.24-.67,1.99,0,1.86,1.51,3.37,3.37,3.37.26,0,.52-.04.76-.1l2.16,3.44c-.49.58-.79,1.32-.79,2.14,0,1.44.91,2.66,2.17,3.14l-1.45,27.89c-2.18.39-3.9,2.25-3.9,4.64,0,2.68,2.04,4.72,4.72,4.72s4.72-2.04,4.72-4.72c0-2.16-1.47-4.03-3.55-4.56l1.45-27.85c1.47-.36,2.57-1.68,2.57-3.27"/>
  <g>
    <path class="cls-1" d="M188.16,75.46c-6.7,0-12.26-2.22-16.67-6.65-4.41-4.43-6.62-9.91-6.62-16.44s2.2-12.01,6.62-16.44c4.41-4.43,9.97-6.65,16.67-6.65,4.03,0,7.75.95,11.16,2.86,3.41,1.91,6.07,4.5,7.98,7.76l-6.36,3.69c-1.19-2.2-2.92-3.95-5.18-5.25-2.27-1.29-4.8-1.94-7.6-1.94-4.75,0-8.6,1.51-11.55,4.52-2.95,3.01-4.42,6.83-4.42,11.45s1.47,8.44,4.42,11.45c2.95,3.01,6.8,4.52,11.55,4.52,2.8,0,5.34-.65,7.63-1.94,2.29-1.29,4.01-3.04,5.15-5.25l6.36,3.63c-1.87,3.27-4.51,5.86-7.92,7.79-3.41,1.93-7.16,2.89-11.23,2.89Z"/>
    <path class="cls-1" d="M213.55,74.63V28.19h6.87v46.44h-6.87Z"/>
    <path class="cls-1" d="M243.7,75.46c-4.67,0-8.63-1.61-11.9-4.83-3.27-3.22-4.9-7.19-4.9-11.9s1.63-8.67,4.9-11.9c3.27-3.22,7.23-4.83,11.9-4.83s8.68,1.61,11.93,4.83c3.24,3.22,4.87,7.19,4.87,11.9s-1.62,8.67-4.87,11.9c-3.24,3.22-7.22,4.83-11.93,4.83ZM236.64,65.92c1.91,1.91,4.26,2.86,7.06,2.86s5.15-.95,7.06-2.86c1.91-1.91,2.86-4.3,2.86-7.19s-.95-5.28-2.86-7.19c-1.91-1.91-4.26-2.86-7.06-2.86s-5.15.95-7.06,2.86-2.86,4.31-2.86,7.19.95,5.28,2.86,7.19Z"/>
    <path class="cls-1" d="M282.06,75.46c-4.79,0-8.79-1.61-11.99-4.83-3.2-3.22-4.8-7.19-4.8-11.9s1.6-8.73,4.8-11.93c3.2-3.2,7.2-4.8,11.99-4.8,3.1,0,5.92.74,8.46,2.23,2.54,1.48,4.45,3.48,5.73,5.98l-5.92,3.44c-.72-1.53-1.81-2.72-3.28-3.59-1.46-.87-3.15-1.3-5.06-1.3-2.8,0-5.14.95-7.03,2.86-1.89,1.91-2.83,4.28-2.83,7.12s.94,5.22,2.83,7.12c1.89,1.91,4.23,2.86,7.03,2.86,1.87,0,3.55-.45,5.06-1.34,1.5-.89,2.64-2.08,3.4-3.56l5.92,3.37c-1.36,2.54-3.31,4.56-5.85,6.04s-5.37,2.23-8.46,2.23Z"/>
    <path class="cls-1" d="M329.77,74.63h-8.21l-13.04-14.69v14.69h-6.87V30.1h6.87v26.78l12.34-14.06h8.4l-13.99,15.59,14.5,16.22Z"/>
    <path class="cls-1" d="M370.73,42.83h7.25l-9.99,31.81h-6.74l-6.62-21.44-6.68,21.44h-6.74l-9.99-31.81h7.25l6.17,21.95,6.68-21.95h6.55l6.62,21.95,6.23-21.95Z"/>
    <path class="cls-1" d="M397.13,75.46c-4.67,0-8.63-1.61-11.9-4.83-3.27-3.22-4.9-7.19-4.9-11.9s1.63-8.67,4.9-11.9c3.27-3.22,7.23-4.83,11.9-4.83s8.68,1.61,11.93,4.83c3.24,3.22,4.87,7.19,4.87,11.9s-1.62,8.67-4.87,11.9c-3.24,3.22-7.22,4.83-11.93,4.83ZM390.07,65.92c1.91,1.91,4.26,2.86,7.06,2.86s5.15-.95,7.06-2.86c1.91-1.91,2.86-4.3,2.86-7.19s-.95-5.28-2.86-7.19c-1.91-1.91-4.26-2.86-7.06-2.86s-5.15.95-7.06,2.86-2.86,4.31-2.86,7.19.95,5.28,2.86,7.19Z"/>
    <path class="cls-1" d="M427.35,48.17c1.74-3.94,5-5.92,9.8-5.92v7.44c-2.63-.17-4.92.46-6.87,1.88-1.95,1.42-2.93,3.76-2.93,7.03v16.03h-6.87v-31.81h6.87v5.34Z"/>
    <path class="cls-1" d="M470.67,74.63h-8.21l-13.04-14.69v14.69h-6.87V30.1h6.87v26.78l12.34-14.06h8.4l-13.99,15.59,14.5,16.22Z"/>
    <path class="cls-1" d="M534.92,30.1v44.53h-7.32v-31.74l-13.55,22.39h-.89l-13.55-22.46v31.81h-7.32V30.1h7.89l13.42,22.26,13.49-22.26h7.82Z"/>
    <path class="cls-1" d="M568.89,42.83h6.87v31.81h-6.87v-4.58c-2.59,3.6-6.3,5.41-11.13,5.41-4.37,0-8.1-1.62-11.2-4.87-3.1-3.24-4.64-7.2-4.64-11.86s1.55-8.67,4.64-11.9c3.1-3.22,6.83-4.83,11.2-4.83,4.83,0,8.54,1.78,11.13,5.34v-4.52ZM551.65,66.01c1.91,1.93,4.3,2.89,7.19,2.89s5.28-.96,7.19-2.89c1.91-1.93,2.86-4.36,2.86-7.28s-.95-5.35-2.86-7.28c-1.91-1.93-4.3-2.89-7.19-2.89s-5.28.97-7.19,2.89c-1.91,1.93-2.86,4.36-2.86,7.28s.95,5.35,2.86,7.28Z"/>
    <path class="cls-1" d="M590.96,48.17c1.74-3.94,5-5.92,9.8-5.92v7.44c-2.63-.17-4.92.46-6.87,1.88-1.95,1.42-2.93,3.76-2.93,7.03v16.03h-6.87v-31.81h6.87v5.34Z"/>
    <path class="cls-1" d="M634.28,74.63h-8.21l-13.04-14.69v14.69h-6.87V30.1h6.87v26.78l12.34-14.06h8.4l-13.99,15.59,14.5,16.22Z"/>
    <path class="cls-1" d="M642.11,61.66c.51,2.42,1.67,4.27,3.5,5.57,1.82,1.29,4.05,1.94,6.68,1.94,3.65,0,6.38-1.31,8.21-3.94l5.66,3.31c-3.14,4.62-7.78,6.93-13.93,6.93-5.17,0-9.35-1.58-12.53-4.74-3.18-3.16-4.77-7.16-4.77-11.99s1.57-8.73,4.71-11.93c3.14-3.2,7.17-4.8,12.09-4.8,4.66,0,8.49,1.63,11.48,4.9,2.99,3.27,4.48,7.23,4.48,11.9,0,.72-.09,1.68-.25,2.86h-25.32ZM642.04,56.06h18.7c-.47-2.59-1.54-4.54-3.21-5.85-1.68-1.31-3.64-1.97-5.88-1.97-2.54,0-4.67.7-6.36,2.1-1.7,1.4-2.78,3.31-3.24,5.73Z"/>
    <path class="cls-1" d="M690.77,49.44h-7.89v15.27c0,1.31.3,2.26.89,2.83.59.57,1.47.89,2.64.95,1.17.06,2.62.05,4.36-.03v6.17c-5.26.64-9.03.18-11.32-1.37s-3.44-4.4-3.44-8.56v-15.27h-5.85v-6.62h5.85v-6.87l6.87-2.04v8.91h7.89v6.62Z"/>
    <path class="cls-1" d="M703.84,36.75c-.87.87-1.9,1.3-3.08,1.3s-2.22-.43-3.09-1.3c-.87-.87-1.3-1.9-1.3-3.08s.42-2.22,1.27-3.09c.85-.87,1.89-1.3,3.12-1.3s2.27.44,3.12,1.3c.85.87,1.27,1.9,1.27,3.09s-.44,2.22-1.3,3.08ZM697.32,74.63v-31.81h6.87v31.81h-6.87Z"/>
    <path class="cls-1" d="M729.19,42c3.65,0,6.59,1.17,8.84,3.5,2.25,2.33,3.37,5.53,3.37,9.61v19.53h-6.87v-18.83c0-2.37-.64-4.2-1.91-5.47-1.27-1.27-3.01-1.91-5.22-1.91-2.42,0-4.37.75-5.85,2.26-1.49,1.51-2.23,3.81-2.23,6.9v17.05h-6.87v-31.81h6.87v4.07c2.08-3.27,5.36-4.9,9.86-4.9Z"/>
    <path class="cls-1" d="M774.42,42.83h6.74v30.34c0,4.83-1.59,8.54-4.77,11.13-3.18,2.59-7.04,3.88-11.58,3.88-7.34,0-12.36-2.57-15.08-7.7l5.92-3.44c1.65,3.27,4.75,4.9,9.29,4.9,2.97,0,5.29-.77,6.97-2.32,1.67-1.55,2.51-3.7,2.51-6.46v-3.88c-2.59,3.69-6.28,5.53-11.07,5.53-4.5,0-8.29-1.6-11.39-4.8-3.1-3.2-4.64-7.07-4.64-11.61s1.55-8.41,4.64-11.61c3.1-3.2,6.89-4.8,11.39-4.8,4.79,0,8.48,1.84,11.07,5.53v-4.71ZM757.09,65.54c1.93,1.91,4.34,2.86,7.22,2.86s5.29-.95,7.22-2.86c1.93-1.91,2.89-4.28,2.89-7.12s-.96-5.22-2.89-7.12c-1.93-1.91-4.34-2.86-7.22-2.86s-5.29.95-7.22,2.86c-1.93,1.91-2.89,4.28-2.89,7.12s.96,5.22,2.89,7.12Z"/>
    <path class="cls-1" d="M788.76,38.92c0-5.57,3.96-9.63,9.58-9.63s9.53,4.06,9.53,9.63-3.96,9.67-9.53,9.67-9.58-4.1-9.58-9.67ZM790.79,38.92c0,4.58,2.92,7.78,7.55,7.78s7.59-3.21,7.59-7.78-3.02-7.79-7.59-7.79-7.55,3.21-7.55,7.79ZM800.37,39.95l2.64,3.91-2.97.05-2.27-3.78h-.8v3.78h-2.45v-10.15h4.53c2.12,0,3.54,1.23,3.54,3.16,0,1.51-.85,2.59-2.22,3.02ZM796.97,35.99v2.12h1.93c.66,0,1.23-.33,1.23-1.08s-.56-1.04-1.23-1.04h-1.93Z"/>
  </g>
  <g>
    <path class="cls-1" d="M209.47,120.93h-12.78v11.37h-3.28v-25.09h3.28v11.01h12.78v-11.01h3.28v25.09h-3.28v-11.37Z"/>
    <path class="cls-1" d="M226.89,132.63c-5.58,0-9.83-3.96-9.83-10.22s4.39-10.15,9.97-10.15,9.97,3.92,9.97,10.15-4.5,10.22-10.11,10.22ZM226.89,129.75c3.42,0,6.77-2.34,6.77-7.34s-3.28-7.31-6.66-7.31-6.59,2.34-6.59,7.31,3.06,7.34,6.48,7.34Z"/>
    <path class="cls-1" d="M248.31,132.63c-4.61,0-7.85-2.52-8.06-6.12h3.38c.18,1.91,1.87,3.35,4.64,3.35,2.59,0,4.03-1.3,4.03-2.92,0-4.39-11.66-1.84-11.66-9.18,0-3.02,2.84-5.51,7.24-5.51s7.23,2.34,7.45,6.19h-3.28c-.14-1.98-1.66-3.42-4.28-3.42-2.41,0-3.85,1.15-3.85,2.74,0,4.68,11.45,2.12,11.59,9.18,0,3.24-2.84,5.69-7.2,5.69Z"/>
    <path class="cls-1" d="M270.78,112.25c5.29,0,9.36,3.96,9.36,10.11s-4.07,10.26-9.36,10.26c-3.6,0-6.16-1.94-7.38-3.96v12.99h-3.28v-29.08h3.28v3.64c1.19-2.09,3.78-3.96,7.38-3.96ZM270.09,115.1c-3.56,0-6.7,2.74-6.7,7.31s3.13,7.34,6.7,7.34,6.7-2.74,6.7-7.38-3.06-7.27-6.7-7.27Z"/>
    <path class="cls-1" d="M283.92,107.14c0-1.26.97-2.23,2.23-2.23,1.19,0,2.16.97,2.16,2.23s-.97,2.23-2.16,2.23c-1.26,0-2.23-.97-2.23-2.23ZM284.46,112.58h3.28v19.73h-3.28v-19.73Z"/>
    <path class="cls-1" d="M294.03,115.28h-2.56v-2.7h2.56v-4.97h3.28v4.97h5.15v2.7h-5.15v11.63c0,1.94.72,2.63,2.74,2.63h2.41v2.77h-2.95c-3.49,0-5.47-1.44-5.47-5.4v-11.63Z"/>
    <path class="cls-1" d="M314.55,112.25c3.67,0,6.19,1.87,7.34,3.92v-3.6h3.31v19.73h-3.31v-3.67c-1.19,2.12-3.74,4-7.38,4-5.26,0-9.32-4.14-9.32-10.26s4.07-10.11,9.36-10.11ZM315.2,115.1c-3.6,0-6.66,2.63-6.66,7.27s3.06,7.38,6.66,7.38,6.7-2.7,6.7-7.34-3.1-7.31-6.7-7.31Z"/>
    <path class="cls-1" d="M330.75,105.66h3.28v26.64h-3.28v-26.64Z"/>
    <path class="cls-1" d="M339.07,107.14c0-1.26.97-2.23,2.23-2.23,1.19,0,2.16.97,2.16,2.23s-.97,2.23-2.16,2.23c-1.26,0-2.23-.97-2.23-2.23ZM339.61,112.58h3.28v19.73h-3.28v-19.73Z"/>
    <path class="cls-1" d="M349.18,115.28h-2.56v-2.7h2.56v-4.97h3.28v4.97h5.15v2.7h-5.15v11.63c0,1.94.72,2.63,2.74,2.63h2.41v2.77h-2.95c-3.49,0-5.47-1.44-5.47-5.4v-11.63Z"/>
    <path class="cls-1" d="M375.17,112.58h3.38l-11.88,29.01h-3.38l3.89-9.5-7.96-19.51h3.64l6.19,15.98,6.12-15.98Z"/>
    <path class="cls-1" d="M391.45,107.39h3.53l9.21,20.59,9.21-20.59h3.49v24.91h-3.28v-18.57l-8.28,18.57h-2.3l-8.32-18.61v18.61h-3.28v-24.91Z"/>
    <path class="cls-1" d="M430.58,112.25c3.67,0,6.19,1.87,7.34,3.92v-3.6h3.31v19.73h-3.31v-3.67c-1.19,2.12-3.74,4-7.38,4-5.26,0-9.32-4.14-9.32-10.26s4.07-10.11,9.36-10.11ZM431.23,115.1c-3.6,0-6.66,2.63-6.66,7.27s3.06,7.38,6.66,7.38,6.7-2.7,6.7-7.34-3.1-7.31-6.7-7.31Z"/>
    <path class="cls-1" d="M450.05,132.3h-3.28v-19.73h3.28v3.2c1.12-2.2,3.24-3.56,6.37-3.56v3.38h-.86c-3.13,0-5.51,1.4-5.51,5.98v10.73Z"/>
    <path class="cls-1" d="M460.21,105.66h3.28v15.66l7.6-8.75h4.57l-9.29,9.83,9.32,9.9h-4.46l-7.74-8.71v8.71h-3.28v-26.64Z"/>
    <path class="cls-1" d="M487.28,132.63c-5.62,0-9.75-3.96-9.75-10.22s4-10.15,9.75-10.15,9.47,4.03,9.47,9.43c0,.72-.04,1.3-.11,1.98h-15.77c.25,4,3.06,6.19,6.41,6.19,2.95,0,4.82-1.51,5.54-3.64h3.53c-1.01,3.6-4.17,6.41-9.07,6.41ZM480.91,121h12.45c.04-3.85-2.84-5.98-6.23-5.98-3.2,0-5.87,2.12-6.23,5.98Z"/>
    <path class="cls-1" d="M501.79,115.28h-2.56v-2.7h2.56v-4.97h3.28v4.97h5.15v2.7h-5.15v11.63c0,1.94.72,2.63,2.74,2.63h2.41v2.77h-2.95c-3.49,0-5.47-1.44-5.47-5.4v-11.63Z"/>
    <path class="cls-1" d="M513.63,107.14c0-1.26.97-2.23,2.23-2.23,1.19,0,2.16.97,2.16,2.23s-.97,2.23-2.16,2.23c-1.26,0-2.23-.97-2.23-2.23ZM514.17,112.58h3.28v19.73h-3.28v-19.73Z"/>
    <path class="cls-1" d="M537.46,121.14c0-4.03-2.2-6.08-5.51-6.08s-5.65,2.09-5.65,6.33v10.91h-3.28v-19.73h3.28v2.81c1.3-2.05,3.67-3.17,6.34-3.17,4.57,0,8.06,2.81,8.06,8.46v11.63h-3.24v-11.16Z"/>
    <path class="cls-1" d="M554.2,112.25c3.6,0,6.19,1.8,7.34,3.92v-3.6h3.31v20.16c0,5.44-3.64,9.29-9.43,9.29-5.18,0-8.89-2.63-9.54-6.84h3.24c.72,2.38,3.06,4,6.3,4,3.49,0,6.12-2.23,6.12-6.44v-4.14c-1.19,2.12-3.74,4.03-7.34,4.03-5.29,0-9.36-4.14-9.36-10.26s4.07-10.11,9.36-10.11ZM554.85,115.1c-3.6,0-6.66,2.63-6.66,7.27s3.06,7.38,6.66,7.38,6.7-2.7,6.7-7.34-3.1-7.31-6.7-7.31Z"/>
    <path class="cls-1" d="M587.97,132.55c-5.04,0-8.6-2.81-8.67-6.95h3.49c.22,2.09,1.69,4.18,5.18,4.18,3.17,0,5.04-1.8,5.04-4.18,0-6.77-13.57-2.45-13.57-11.77,0-4.14,3.35-6.95,8.32-6.95s7.92,2.63,8.31,6.44h-3.6c-.22-1.69-1.8-3.6-4.86-3.64-2.7-.07-4.82,1.33-4.82,4.03,0,6.48,13.53,2.45,13.53,11.73,0,3.56-2.92,7.09-8.35,7.09Z"/>
    <path class="cls-1" d="M611.8,112.25c5.29,0,9.36,3.96,9.36,10.11s-4.07,10.26-9.36,10.26c-3.6,0-6.16-1.94-7.38-3.96v12.99h-3.28v-29.08h3.28v3.64c1.19-2.09,3.78-3.96,7.38-3.96ZM611.12,115.1c-3.56,0-6.7,2.74-6.7,7.31s3.13,7.34,6.7,7.34,6.7-2.74,6.7-7.38-3.06-7.27-6.7-7.27Z"/>
    <path class="cls-1" d="M634.01,132.63c-5.62,0-9.75-3.96-9.75-10.22s4-10.15,9.75-10.15,9.47,4.03,9.47,9.43c0,.72-.04,1.3-.11,1.98h-15.77c.25,4,3.06,6.19,6.41,6.19,2.95,0,4.82-1.51,5.54-3.64h3.53c-1.01,3.6-4.17,6.41-9.07,6.41ZM627.64,121h12.45c.04-3.85-2.84-5.98-6.23-5.98-3.2,0-5.87,2.12-6.23,5.98Z"/>
    <path class="cls-1" d="M656.19,112.25c4.9,0,8.1,2.52,9.11,6.66h-3.53c-.68-2.38-2.66-3.89-5.58-3.89-3.6,0-6.26,2.56-6.26,7.38s2.66,7.45,6.26,7.45c2.92,0,4.86-1.4,5.58-3.89h3.53c-1.01,3.92-4.21,6.66-9.11,6.66-5.62,0-9.61-3.96-9.61-10.22s4-10.15,9.61-10.15Z"/>
    <path class="cls-1" d="M669.11,107.14c0-1.26.97-2.23,2.23-2.23,1.19,0,2.16.97,2.16,2.23s-.97,2.23-2.16,2.23c-1.26,0-2.23-.97-2.23-2.23ZM669.65,112.58h3.28v19.73h-3.28v-19.73Z"/>
    <path class="cls-1" d="M686.64,112.25c3.67,0,6.19,1.87,7.34,3.92v-3.6h3.31v19.73h-3.31v-3.67c-1.19,2.12-3.74,4-7.38,4-5.26,0-9.32-4.14-9.32-10.26s4.07-10.11,9.36-10.11ZM687.29,115.1c-3.6,0-6.66,2.63-6.66,7.27s3.06,7.38,6.66,7.38,6.7-2.7,6.7-7.34-3.1-7.31-6.7-7.31Z"/>
    <path class="cls-1" d="M702.84,105.66h3.28v26.64h-3.28v-26.64Z"/>
    <path class="cls-1" d="M711.16,107.14c0-1.26.97-2.23,2.23-2.23,1.19,0,2.16.97,2.16,2.23s-.97,2.23-2.16,2.23c-1.26,0-2.23-.97-2.23-2.23ZM711.7,112.58h3.28v19.73h-3.28v-19.73Z"/>
    <path class="cls-1" d="M727.54,132.63c-4.61,0-7.85-2.52-8.06-6.12h3.38c.18,1.91,1.87,3.35,4.64,3.35,2.59,0,4.03-1.3,4.03-2.92,0-4.39-11.66-1.84-11.66-9.18,0-3.02,2.84-5.51,7.24-5.51s7.23,2.34,7.45,6.19h-3.28c-.14-1.98-1.66-3.42-4.28-3.42-2.41,0-3.85,1.15-3.85,2.74,0,4.68,11.45,2.12,11.59,9.18,0,3.24-2.84,5.69-7.2,5.69Z"/>
    <path class="cls-1" d="M740.07,115.28h-2.56v-2.7h2.56v-4.97h3.28v4.97h5.15v2.7h-5.15v11.63c0,1.94.72,2.63,2.74,2.63h2.41v2.77h-2.95c-3.49,0-5.47-1.44-5.47-5.4v-11.63Z"/>
    <path class="cls-1" d="M759.43,132.63c-4.61,0-7.85-2.52-8.06-6.12h3.38c.18,1.91,1.87,3.35,4.64,3.35,2.59,0,4.03-1.3,4.03-2.92,0-4.39-11.66-1.84-11.66-9.18,0-3.02,2.84-5.51,7.24-5.51s7.23,2.34,7.45,6.19h-3.28c-.14-1.98-1.66-3.42-4.28-3.42-2.41,0-3.85,1.15-3.85,2.74,0,4.68,11.45,2.12,11.59,9.18,0,3.24-2.84,5.69-7.2,5.69Z"/>
  </g>
</svg>